#!OML:ASF X:\für Bonn\!DataBase\2005_08_10_Bjorn_Final\c3d\bjorn.ASF
:FULLY-SPECIFIED
:DEGREES
61
root 2.06981 17.4679 0.977945 333.793 -262.266 -386.625
lowerback 21.3369 1.0713 0.886761
upperback 17.4899 3.6364 -1.38902
thorax 7.62636 2.86949 -2.40633
lowerneck -3.21263 -7.41792 1.89986
upperneck 11.9422 -10.1342 2.2506
head 4.54948 -4.70516 -0.0641034
rclavicle -4.57205e-014 3.85642e-014
rhumerus 10.9279 5.89283 -77.2641
rradius 37.9872
rwrist -5.58823
rhand -19.3242 14.5105
rfingers 7.12502
rthumb 6.9922 -15.354
lclavicle -4.57205e-014 3.85642e-014
lhumerus -3.15705 -25.6448 85.1625
lradius 41.8738
lwrist -9.14071
lhand -32.4114 -9.93677
lfingers 7.12502
lthumb -5.64594 19.968
rfemur -35.1464 -9.08475 16.5274
rtibia 63.2692
rfoot -22.5903 15.2442
rtoes 4.7485
lfemur -38.0984 8.54739 -22.1148
ltibia 61.7142
lfoot -17.118 0.867195
ltoes -10.5021
62
root 2.06527 17.3593 0.958642 334.226 -262.079 -386.31
lowerback 21.8058 0.941551 1.07703
upperback 17.7066 3.55704 -1.29555
thorax 7.6553 2.86925 -2.41374
lowerneck -3.63104 -7.53255 1.91174
upperneck 11.8092 -10.3185 2.30695
head 4.58794 -4.79629 -0.0730946
rclavicle 2.74323e-014 -7.55382e-015
rhumerus 11.7556 5.61209 -76.7581
rradius 37.4824
rwrist -5.47359
rhand -19.1023 14.3024
rfingers 7.12502
rthumb 7.20645 -15.5549
lclavicle 2.74323e-014 -7.55382e-015
lhumerus -1.68936 -26.5018 84.51
lradius 42.4109
lwrist -9.20674
lhand -32.5341 -10.0914
lfingers 7.12502
lthumb -5.76437 19.8102
rfemur -36.0792 -9.22461 16.4353
rtibia 64.7244
rfoot -23.2662 15.2041
rtoes 4.19984
lfemur -39.0433 8.46194 -22.3126
ltibia 63.0811
lfoot -17.7514 0.905848
ltoes -11.1141
63
root 2.06091 17.2491 0.93892 334.629 -261.934 -385.996
lowerback 22.3139 0.818391 1.26563
upperback 17.9194 3.48822 -1.17747
thorax 7.66115 2.8725 -2.39623
lowerneck -4.03256 -7.64945 1.94557
upperneck 11.6548 -10.5012 2.31964
head 4.611 -4.8887 -0.0991847
rclavicle 6.20208e-014 2.18663e-014
rhumerus 12.5768 5.35429 -76.2268
rradius 36.9118
rwrist -5.41384
rhand -18.8431 14.2514
rfingers 7.12502
rthumb 7.45663 -15.5972
lclavicle 6.20208e-014 2.18663e-014
lhumerus -0.214489 -27.3179 83.8432
lradius 42.9566
lwrist -9.19661
lhand -32.6118 -10.2813
lfingers 7.12502
lthumb -5.83943 19.6183
rfemur -36.9796 -9.34298 16.3586
rtibia 66.1711
rfoot -23.9294 15.166
rtoes 3.80474
lfemur -39.9625 8.41748 -22.493
ltibia 64.4581
lfoot -18.3816 1.00477
ltoes -11.7675
64
root 2.05677 17.1349 0.917738 334.929 -261.779 -385.815
lowerback 22.8149 0.686744 1.47798
upperback 18.0981 3.40977 -1.09236
thorax 7.63475 2.87322 -2.427
lowerneck -4.40693 -7.76061 2.00555
upperneck 11.5142 -10.6813 2.37291
head 4.63493 -4.97588 -0.115626
rclavicle 1.43125e-014 -3.49861e-014
rhumerus 13.3509 5.07991 -75.7642
rradius 36.2958
rwrist -5.36349
rhand -18.6133 14.1893
rfingers 7.12502
rthumb 7.67841 -15.6513
lclavicle 1.43125e-014 -3.49861e-014
lhumerus 1.2529 -28.1497 83.0701
lradius 43.5289
lwrist -9.1447
lhand -32.5912 -10.3727
lfingers 7.12502
lthumb -5.81952 19.5274
rfemur -37.9293 -9.48583 16.2664
rtibia 67.6302
rfoot -24.5903 15.1114
rtoes 3.12711
lfemur -40.9305 8.38363 -22.7044
ltibia 65.8452
lfoot -18.9966 1.1421
ltoes -12.8609
65
root 2.0533 17.0197 0.896108 335.254 -261.656 -385.597
lowerback 23.3261 0.56357 1.68276
upperback 18.2882 3.34557 -0.971212
thorax 7.6171 2.87868 -2.41518
lowerneck -4.72087 -7.86337 2.0403
upperneck 11.2775 -10.843 2.42027
head 4.61247 -5.05959 -0.123882
rclavicle 5.24792e-014 -6.36111e-015
rhumerus 14.1354 4.8037 -75.2473
rradius 35.6406
rwrist -5.30089
rhand -18.353 14.1405
rfingers 7.12502
rthumb 7.92959 -15.6907
lclavicle 5.24792e-014 -6.36111e-015
lhumerus 2.76974 -28.9402 82.2673
lradius 44.0924
lwrist -9.09976
lhand -32.5379 -10.5261
lfingers 7.12502
lthumb -5.76812 19.3754
rfemur -38.8592 -9.61341 16.1928
rtibia 69.0812
rfoot -25.2247 15.057
rtoes 2.53157
lfemur -41.8874 8.39055 -22.8963
ltibia 67.2392
lfoot -19.6038 1.25007
ltoes -13.81
66
root 2.05033 16.9027 0.873324 335.657 -261.55 -385.299
lowerback 23.8375 0.431901 1.92997
upperback 18.4581 3.27691 -0.853768
thorax 7.57956 2.88493 -2.43056
lowerneck -4.78261 -7.94682 2.07786
upperneck 10.8319 -10.9693 2.53352
head 4.46738 -5.13213 -0.0912733
rclavicle 1.11319e-014 2.38542e-014
rhumerus 14.8527 4.56851 -74.7326
rradius 34.9877
rwrist -5.25504
rhand -18.1805 14.0594
rfingers 7.12502
rthumb 8.09615 -15.7655
lclavicle 1.11319e-014 2.38542e-014
lhumerus 4.26708 -29.7012 81.4029
lradius 44.6914
lwrist -9.07898
lhand -32.4222 -10.5968
lfingers 7.12502
lthumb -5.65638 19.3077
rfemur -39.8043 -9.74843 16.1434
rtibia 70.5374
rfoot -25.8484 14.9854
rtoes 1.88794
lfemur -42.8565 8.41739 -23.0739
ltibia 68.6435
lfoot -20.2131 1.37466
ltoes -14.7515
67
root 2.04842 16.7829 0.85003 335.759 -261.452 -385.308
lowerback 24.3497 0.318746 2.11154
upperback 18.6161 3.22119 -0.720005
thorax 7.52514 2.88811 -2.39319
lowerneck -4.7917 -8.01553 2.06975
upperneck 10.3814 -11.0708 2.67847
head 4.31632 -5.19328 -0.0369192
rclavicle -1.04163e-013 5.24792e-014
rhumerus 15.5621 4.3727 -74.1855
rradius 34.2384
rwrist -5.14677
rhand -18.1213 13.997
rfingers 7.12502
rthumb 8.15325 -15.8257
lclavicle -1.04163e-013 5.24792e-014
lhumerus 5.73136 -30.381 80.5471
lradius 45.3124
lwrist -9.14962
lhand -32.3093 -10.667
lfingers 7.12502
lthumb -5.54736 19.2404
rfemur -40.7465 -9.84916 16.0441
rtibia 71.9893
rfoot -26.4701 14.9319
rtoes 1.23852
lfemur -43.8223 8.46665 -23.2919
ltibia 70.0387
lfoot -20.8078 1.51279
ltoes -15.621
